<svg width="6304" height="4208" viewBox="0 0 6304 4208" fill="none" xmlns="http://www.w3.org/2000/svg">
<g filter="url(#filter0_f_1034_5)">
<path d="M4695.98 1071.55C4769.27 1092.4 4813.52 1103.21 4885.18 1125.16C4916.75 1135.77 4951.16 1147.47 4963.97 1156.71C5009.74 1189.72 4977.45 1204.06 4939.5 1214.97C4898.52 1226.75 4838.31 1232.5 4769.41 1234.26C4625.54 1237.92 4634.87 1361.3 4500.77 1368.84C4336.93 1378.07 4207.29 1396.2 4116.81 1430.89C4017.82 1468.84 3940.17 1537.48 3887.83 1589.58C3740.79 1735.98 3608.53 1888.13 3556.93 2061.5C3531.64 2146.47 3366.71 2091.35 3454.17 2204.95C3523.25 2294.68 3646.32 2397.42 3800.96 2504.48C3962.17 2616.09 4177.42 2735.65 4380.75 2853.89C4631.65 2999.8 4866.83 3144.07 5057.78 3280.13C5212.73 3390.54 5370.52 3507.63 5367.05 3583.73C5364.64 3636.34 5278.22 3666.27 5137.49 3675.19C5009.21 3683.32 4820.4 3665.57 4564.17 3606.41C4254.88 3535.01 3912.33 3427.55 3626.59 3331.4C3320.73 3228.49 3040.26 3120.66 2773.66 3014.7C2542.58 2922.85 2325.86 2831.28 2126.67 2740.61C1537.15 2472.25 1189.71 2228.75 988.041 2022.62C871.148 1903.14 785.793 1789.74 747.151 1688.3C711.044 1593.52 688.85 1501.72 672.603 1411.93C656.679 1323.92 671.194 1244.25 705.892 1169.76C751.295 1072.28 814.669 979.295 951.106 908.275C1090.73 835.598 1287.39 780.359 1578.34 758.592C1765.5 744.591 1985.56 742.89 2198.82 738.898C2362.83 735.829 2526.06 733.223 2731.95 747.302C2964.94 763.234 3147.06 783.092 3420.83 818.223C3636.95 845.954 3888.81 878.991 4149.79 933.64C4173.45 938.594 4294.56 968.072 4321.7 974.722C4445.55 1005.08 4571.95 1036.27 4695.98 1071.55Z" fill="url(#paint0_radial_1034_5)" fill-opacity="0.8"/>
</g>
<g filter="url(#filter1_f_1034_5)">
<path d="M1286.36 929.486C1288.36 910.036 1287.85 898.314 1291.32 879.275C1293.76 870.876 1296.55 861.717 1302.32 858.245C1322.91 845.836 1344.78 854.095 1364.74 863.883C1386.28 874.45 1406.77 890.131 1425.54 908.136C1464.74 945.731 1532.09 728.033 1572.62 763.023C1622.15 805.771 1671.82 839.455 1727.79 862.674C1789.04 888.078 1851.71 904.535 1915.08 917.545C2093.14 954.098 2273.09 922.358 2453.58 933.583C2542.04 939.085 2632.1 941.921 2720.31 917.545C2789.98 898.291 2858.86 929.086 2924.09 887.218C2992.1 843.571 3065.52 913 3129.5 858.245C3208.46 790.677 3260.21 914.424 3344.5 862.674C3412.9 820.679 3475.59 720.991 3550.06 720.901C3601.54 720.84 3651.91 743.06 3695.42 779.765C3735.08 813.224 3764.71 862.862 3770.98 930.684C3778.56 1012.55 3759.52 1103.59 3737.33 1179.62C3713.59 1261 3823.32 1335.33 3786.9 1406.48C3755.32 1468.15 3854.74 1689.18 3816.4 1742.49C3702.92 1900.27 3408.96 1994.86 3259.55 2050.34C3172.95 2082.49 2950.14 1943.19 2861.59 1954.63C2778.86 1965.33 2695.57 1972.34 2612.74 1977.77C2531.56 1983.09 2450.89 1980.34 2370.23 1972.24C2264.69 1961.64 2168.09 2097.18 2065.58 2062.41C1960.68 2026.83 1783.15 2117.08 1689.98 2041.23C1630.05 1992.44 1418.29 1924.5 1361.58 1868.75C1317.96 1825.87 1263.83 1642.51 1226.42 1588.45C1184.09 1527.27 1304.7 1338.85 1270.83 1266.76C1244.09 1209.84 1300.14 1143.22 1288.32 1074.21C1287.25 1067.96 1285.75 1035.88 1285.46 1028.69C1284.12 995.885 1282.97 962.404 1286.36 929.486Z" fill="url(#paint1_linear_1034_5)"/>
</g>
<defs>
<filter id="filter0_f_1034_5" x="316.159" y="386.475" width="5400.94" height="3640.58" filterUnits="userSpaceOnUse" color-interpolation-filters="sRGB">
<feFlood flood-opacity="0" result="BackgroundImageFix"/>
<feBlend mode="normal" in="SourceGraphic" in2="BackgroundImageFix" result="shape"/>
<feGaussianBlur stdDeviation="175" result="effect1_foregroundBlur_1034_5"/>
</filter>
<filter id="filter1_f_1034_5" x="867.299" y="370.901" width="3308.03" height="2051.69" filterUnits="userSpaceOnUse" color-interpolation-filters="sRGB">
<feFlood flood-opacity="0" result="BackgroundImageFix"/>
<feBlend mode="normal" in="SourceGraphic" in2="BackgroundImageFix" result="shape"/>
<feGaussianBlur stdDeviation="175" result="effect1_foregroundBlur_1034_5"/>
</filter>
<radialGradient id="paint0_radial_1034_5" cx="0" cy="0" r="1" gradientUnits="userSpaceOnUse" gradientTransform="translate(4062.45 2189.91) rotate(-165.291) scale(3070.73 1488.69)">
<stop stop-color="#373FF7"/>
<stop offset="0.4" stop-color="#8961F4"/>
<stop offset="1" stop-color="#FF2400"/>
</radialGradient>
<linearGradient id="paint1_linear_1034_5" x1="3166.99" y1="1062.06" x2="1503.62" y2="1098.51" gradientUnits="userSpaceOnUse">
<stop stop-color="#6250DF"/>
<stop offset="0.635" stop-color="#935CD6"/>
<stop offset="1" stop-color="#F697FE"/>
</linearGradient>
</defs>
</svg>
