<svg width="26" height="26" viewBox="0 0 26 26" fill="none" xmlns="http://www.w3.org/2000/svg">
<path d="M13 11.7C14.7239 11.7 16.3772 12.3848 17.5962 13.6038C18.8152 14.8228 19.5 16.4761 19.5 18.2V26H16.9V18.2C16.9001 17.2052 16.52 16.248 15.8375 15.5243C15.1551 14.8005 14.2219 14.3649 13.2288 14.3065L13 14.3C12.0052 14.2999 11.048 14.68 10.3243 15.3625C9.60049 16.0449 9.16486 16.9781 9.1065 17.9712L9.1 18.2V26H6.5V18.2C6.5 16.4761 7.18482 14.8228 8.40381 13.6038C9.62279 12.3848 11.2761 11.7 13 11.7ZM4.55 15.6C4.914 15.6009 5.265 15.6416 5.603 15.7222C5.38154 16.3841 5.24994 17.0728 5.2117 17.7697L5.2 18.2V18.3118C5.05054 18.2584 4.89512 18.2235 4.7372 18.2078L4.55 18.2C4.06546 18.2 3.59827 18.3804 3.23946 18.706C2.88065 19.0317 2.65594 19.4792 2.6091 19.9615L2.6 20.15V26H0V20.15C0 18.9433 0.479374 17.786 1.33266 16.9327C2.18595 16.0794 3.34326 15.6 4.55 15.6ZM21.45 15.6C22.6567 15.6 23.814 16.0794 24.6673 16.9327C25.5206 17.786 26 18.9433 26 20.15V26H23.4V20.15C23.4 19.6655 23.2196 19.1983 22.894 18.8395C22.5683 18.4807 22.1208 18.2559 21.6385 18.2091L21.45 18.2C21.2212 18.2009 21.0045 18.2377 20.8 18.3105V18.2C20.8 17.3342 20.6596 16.5022 20.3996 15.7248C20.735 15.6429 21.0886 15.6 21.45 15.6ZM4.55 7.8C5.41195 7.8 6.2386 8.14241 6.8481 8.7519C7.45759 9.3614 7.8 10.188 7.8 11.05C7.8 11.912 7.45759 12.7386 6.8481 13.3481C6.2386 13.9576 5.41195 14.3 4.55 14.3C3.68805 14.3 2.8614 13.9576 2.2519 13.3481C1.64241 12.7386 1.3 11.912 1.3 11.05C1.3 10.188 1.64241 9.3614 2.2519 8.7519C2.8614 8.14241 3.68805 7.8 4.55 7.8ZM21.45 7.8C22.312 7.8 23.1386 8.14241 23.7481 8.7519C24.3576 9.3614 24.7 10.188 24.7 11.05C24.7 11.912 24.3576 12.7386 23.7481 13.3481C23.1386 13.9576 22.312 14.3 21.45 14.3C20.588 14.3 19.7614 13.9576 19.1519 13.3481C18.5424 12.7386 18.2 11.912 18.2 11.05C18.2 10.188 18.5424 9.3614 19.1519 8.7519C19.7614 8.14241 20.588 7.8 21.45 7.8ZM4.55 10.4C4.37761 10.4 4.21228 10.4685 4.09038 10.5904C3.96848 10.7123 3.9 10.8776 3.9 11.05C3.9 11.2224 3.96848 11.3877 4.09038 11.5096C4.21228 11.6315 4.37761 11.7 4.55 11.7C4.72239 11.7 4.88772 11.6315 5.00962 11.5096C5.13152 11.3877 5.2 11.2224 5.2 11.05C5.2 10.8776 5.13152 10.7123 5.00962 10.5904C4.88772 10.4685 4.72239 10.4 4.55 10.4ZM21.45 10.4C21.2776 10.4 21.1123 10.4685 20.9904 10.5904C20.8685 10.7123 20.8 10.8776 20.8 11.05C20.8 11.2224 20.8685 11.3877 20.9904 11.5096C21.1123 11.6315 21.2776 11.7 21.45 11.7C21.6224 11.7 21.7877 11.6315 21.9096 11.5096C22.0315 11.3877 22.1 11.2224 22.1 11.05C22.1 10.8776 22.0315 10.7123 21.9096 10.5904C21.7877 10.4685 21.6224 10.4 21.45 10.4ZM13 0C14.3791 0 15.7018 0.547856 16.677 1.52304C17.6521 2.49823 18.2 3.82087 18.2 5.2C18.2 6.57913 17.6521 7.90177 16.677 8.87696C15.7018 9.85214 14.3791 10.4 13 10.4C11.6209 10.4 10.2982 9.85214 9.32304 8.87696C8.34785 7.90177 7.8 6.57913 7.8 5.2C7.8 3.82087 8.34785 2.49823 9.32304 1.52304C10.2982 0.547856 11.6209 0 13 0ZM13 2.6C12.3104 2.6 11.6491 2.87393 11.1615 3.36152C10.6739 3.84912 10.4 4.51044 10.4 5.2C10.4 5.88956 10.6739 6.55088 11.1615 7.03848C11.6491 7.52607 12.3104 7.8 13 7.8C13.6896 7.8 14.3509 7.52607 14.8385 7.03848C15.3261 6.55088 15.6 5.88956 15.6 5.2C15.6 4.51044 15.3261 3.84912 14.8385 3.36152C14.3509 2.87393 13.6896 2.6 13 2.6Z" fill="#03212B"/>
</svg>
