<svg width="28" height="22" viewBox="0 0 28 22" fill="none" xmlns="http://www.w3.org/2000/svg">
<path d="M2.8 16.5V12.375H1.4C1.0287 12.375 0.672601 12.2301 0.410051 11.9723C0.1475 11.7144 0 11.3647 0 11C0 10.6353 0.1475 10.2856 0.410051 10.0277C0.672601 9.76987 1.0287 9.625 1.4 9.625H2.8L8.4 0H19.6L25.2 9.625H26.6C26.9713 9.625 27.3274 9.76987 27.59 10.0277C27.8525 10.2856 28 10.6353 28 11C28 11.3647 27.8525 11.7144 27.59 11.9723C27.3274 12.2301 26.9713 12.375 26.6 12.375H25.2V20.625C25.2 20.9897 25.0525 21.3394 24.7899 21.5973C24.5274 21.8551 24.1713 22 23.8 22H22.4C22.0287 22 21.6726 21.8551 21.4101 21.5973C21.1475 21.3394 21 20.9897 21 20.625V19.25H7V20.625C7 20.9897 6.8525 21.3394 6.58995 21.5973C6.3274 21.8551 5.9713 22 5.6 22H4.2C3.8287 22 3.4726 21.8551 3.21005 21.5973C2.9475 21.3394 2.8 20.9897 2.8 20.625V16.5ZM22.204 9.625L18.2 2.75H9.8L5.796 9.625H22.204ZM7.7 16.5C7.97578 16.5 8.24885 16.4467 8.50364 16.343C8.75842 16.2394 8.98992 16.0874 9.18492 15.8959C9.37993 15.7044 9.53461 15.477 9.64015 15.2268C9.74568 14.9766 9.8 14.7084 9.8 14.4375C9.8 14.1666 9.74568 13.8984 9.64015 13.6482C9.53461 13.398 9.37993 13.1706 9.18492 12.9791C8.98992 12.7876 8.75842 12.6356 8.50364 12.532C8.24885 12.4283 7.97578 12.375 7.7 12.375C7.14305 12.375 6.6089 12.5923 6.21508 12.9791C5.82125 13.3659 5.6 13.8905 5.6 14.4375C5.6 14.9845 5.82125 15.5091 6.21508 15.8959C6.6089 16.2827 7.14305 16.5 7.7 16.5ZM20.3 16.5C20.5758 16.5 20.8489 16.4467 21.1036 16.343C21.3584 16.2394 21.5899 16.0874 21.7849 15.8959C21.9799 15.7044 22.1346 15.477 22.2401 15.2268C22.3457 14.9766 22.4 14.7084 22.4 14.4375C22.4 14.1666 22.3457 13.8984 22.2401 13.6482C22.1346 13.398 21.9799 13.1706 21.7849 12.9791C21.5899 12.7876 21.3584 12.6356 21.1036 12.532C20.8489 12.4283 20.5758 12.375 20.3 12.375C19.743 12.375 19.2089 12.5923 18.8151 12.9791C18.4212 13.3659 18.2 13.8905 18.2 14.4375C18.2 14.9845 18.4212 15.5091 18.8151 15.8959C19.2089 16.2827 19.743 16.5 20.3 16.5Z" fill="#03212B"/>
</svg>
